<mxfile host="Electron" agent="Mozilla/5.0 (Macintosh; Intel Mac OS X 10_15_7) AppleWebKit/537.36 (KHTML, like Gecko) draw.io/24.7.8 Chrome/128.0.6613.36 Electron/32.0.1 Safari/537.36" version="24.7.8">
  <diagram name="Page-1" id="PhxBp8120Z4Cl5BnsqYq">
    <mxGraphModel dx="1412" dy="943" grid="1" gridSize="10" guides="1" tooltips="1" connect="1" arrows="1" fold="1" page="1" pageScale="1" pageWidth="1100" pageHeight="850" math="0" shadow="0">
      <root>
        <mxCell id="0" />
        <mxCell id="1" parent="0" />
        <mxCell id="3jHzPYg7bSkFyvmUZXpK-3" value="" style="group" vertex="1" connectable="0" parent="1">
          <mxGeometry x="320" y="120" width="305" height="240" as="geometry" />
        </mxCell>
        <mxCell id="3jHzPYg7bSkFyvmUZXpK-2" value="E" style="text;html=1;align=center;verticalAlign=middle;whiteSpace=wrap;rounded=0;fontSize=240;fontFamily=Avenir;fontStyle=1;fontColor=#40bf40;" vertex="1" parent="3jHzPYg7bSkFyvmUZXpK-3">
          <mxGeometry x="105" width="200" height="240" as="geometry" />
        </mxCell>
        <mxCell id="3jHzPYg7bSkFyvmUZXpK-1" value="D" style="text;html=1;align=center;verticalAlign=middle;whiteSpace=wrap;rounded=0;fontSize=240;fontFamily=Avenir;fontStyle=1;fontColor=#375492;" vertex="1" parent="3jHzPYg7bSkFyvmUZXpK-3">
          <mxGeometry width="200" height="240" as="geometry" />
        </mxCell>
      </root>
    </mxGraphModel>
  </diagram>
</mxfile>
